<svg width="66" height="61" viewBox="0 0 66 61" fill="none" xmlns="http://www.w3.org/2000/svg">
<circle opacity="0.1" cx="35.6072" cy="30.1786" r="30.1786" fill="#F26295"/>
<path d="M39.9704 25.3735C40.5196 25.3735 41.0565 25.2227 41.5131 24.9403C41.9698 24.6579 42.3257 24.2564 42.5358 23.7868C42.746 23.3171 42.801 22.8003 42.6939 22.3017C42.5867 21.8031 42.3223 21.3451 41.9339 20.9857C41.5456 20.6262 41.0508 20.3814 40.5122 20.2822C39.9735 20.1831 39.4152 20.234 38.9078 20.4285C38.4004 20.623 37.9668 20.9525 37.6616 21.3752C37.3565 21.7979 37.1937 22.2948 37.1937 22.8032C37.1945 23.4846 37.4873 24.1379 38.0079 24.6198C38.5284 25.1017 39.2342 25.3727 39.9704 25.3735ZM39.9704 21.7016C40.2058 21.7016 40.4359 21.7662 40.6316 21.8872C40.8273 22.0083 40.9798 22.1803 41.0699 22.3816C41.16 22.5829 41.1835 22.8044 41.1376 23.0181C41.0917 23.2317 40.9784 23.428 40.8119 23.5821C40.6455 23.7361 40.4335 23.8411 40.2026 23.8836C39.9718 23.9261 39.7325 23.9042 39.515 23.8209C39.2976 23.7375 39.1117 23.5963 38.981 23.4152C38.8502 23.234 38.7804 23.021 38.7804 22.8032C38.7807 22.5111 38.9062 22.2311 39.1293 22.0246C39.3524 21.8181 39.6549 21.7019 39.9704 21.7016Z" fill="#38106A"/>
<path d="M46.7141 9.95163H48.3008V11.4204H46.7141V9.95163Z" fill="#38106A"/>
<path d="M7.83923 42.2642H9.42596V43.7329H7.83923V42.2642Z" fill="#38106A"/>
<path d="M13.3928 34.9204H14.9795V36.3892H13.3928V34.9204Z" fill="#38106A"/>
<path d="M7.04578 17.2954H8.63251V18.7641H7.04578V17.2954Z" fill="#38106A"/>
<path d="M5.87164 28.2211L8.2319 29.4162L9.5231 31.6014C9.59141 31.717 9.69209 31.8135 9.81456 31.8807C9.93704 31.948 10.0768 31.9834 10.2192 31.9834C10.3616 31.9834 10.5013 31.948 10.6238 31.8807C10.7463 31.8135 10.8469 31.717 10.9153 31.6014L12.2063 29.4167L14.5665 28.2216C14.6914 28.1583 14.7956 28.0651 14.8682 27.9518C14.9408 27.8384 14.9791 27.7091 14.9791 27.5773C14.9791 27.4455 14.9408 27.3161 14.8682 27.2028C14.7956 27.0894 14.6914 26.9962 14.5665 26.933L12.2063 25.738L10.9153 23.5532C10.8469 23.4376 10.7463 23.3411 10.6238 23.2739C10.5013 23.2067 10.3616 23.1712 10.2192 23.1712C10.0768 23.1712 9.93704 23.2067 9.81456 23.2739C9.69209 23.3411 9.59141 23.4376 9.5231 23.5532L8.2321 25.738L5.87184 26.933C5.74694 26.9962 5.64273 27.0894 5.57013 27.2028C5.49754 27.3161 5.45923 27.4455 5.45923 27.5773C5.45923 27.7091 5.49754 27.8384 5.57013 27.9518C5.64273 28.0651 5.74694 28.1583 5.87184 28.2216L5.87164 28.2211ZM9.19772 26.9229C9.33087 26.8555 9.44035 26.7542 9.51318 26.631L10.2192 25.4354L10.9256 26.631C10.9984 26.7542 11.1079 26.8555 11.241 26.9229L12.5326 27.5768L11.2406 28.2307C11.1075 28.2982 10.9981 28.3995 10.9253 28.5226L10.2192 29.7182L9.51279 28.5226C9.43995 28.3995 9.33052 28.2982 9.19742 28.2307L7.90583 27.5768L9.19772 26.9229Z" fill="#38106A"/>
<path d="M39.4763 29.4279C39.408 29.3122 39.3073 29.2158 39.1848 29.1485C39.0624 29.0813 38.9226 29.0459 38.7802 29.0459C38.6378 29.0459 38.4981 29.0813 38.3756 29.1485C38.2531 29.2158 38.1525 29.3122 38.0841 29.4279L36.7931 31.6126L34.4329 32.8076C34.308 32.8709 34.2038 32.9641 34.1312 33.0774C34.0586 33.1908 34.0203 33.3201 34.0203 33.4519C34.0203 33.5837 34.0586 33.713 34.1312 33.8264C34.2038 33.9398 34.308 34.0329 34.4329 34.0962L36.7931 35.2913L38.0841 37.4768C38.1525 37.5924 38.2531 37.6889 38.3756 37.7561C38.4981 37.8233 38.6378 37.8588 38.7802 37.8588C38.9226 37.8588 39.0624 37.8233 39.1848 37.7561C39.3073 37.6889 39.408 37.5924 39.4763 37.4768L40.7673 35.292L43.1276 34.0969C43.2525 34.0337 43.3567 33.9405 43.4293 33.8271C43.5019 33.7138 43.5402 33.5844 43.5402 33.4526C43.5402 33.3209 43.5019 33.1915 43.4293 33.0782C43.3567 32.9648 43.2525 32.8716 43.1276 32.8084L40.7673 31.6134L39.4763 29.4279ZM39.802 34.1061C39.6689 34.1735 39.5594 34.2748 39.4866 34.398L38.7802 35.5936L38.0738 34.398C38.001 34.2748 37.8916 34.1735 37.7585 34.1061L36.4669 33.4521L37.7585 32.7983C37.8916 32.7309 38.0011 32.6296 38.0739 32.5064L38.7802 31.3108L39.4866 32.5064C39.5594 32.6296 39.6689 32.7309 39.8021 32.7983L41.0937 33.4521L39.802 34.1061Z" fill="#38106A"/>
<path d="M48.4659 43.5811C48.9405 42.5437 49.1028 41.4067 48.9356 40.2908L48.4794 36.9586C48.9445 35.9286 49.102 34.802 48.9356 33.6965L45.8353 12.0392C45.388 9.07213 42.6416 7 39.1563 7H9.84327C6.35802 7 3.61159 9.07213 3.16363 12.0441L0.0647509 33.6909C-0.102211 34.7979 0.0551336 35.9261 0.520341 36.9576L0.0641559 40.2905C-0.103127 41.4065 0.0591386 42.5436 0.533729 43.5811L0.0647509 46.8949C-0.068556 47.779 0.00453045 48.6793 0.279079 49.535C0.553628 50.3907 1.02325 51.1819 1.65627 51.8553C2.28929 52.5287 3.07098 53.0686 3.94859 53.4386C4.82621 53.8086 5.77934 54 6.74369 54H42.2559C43.2196 54 44.1722 53.8087 45.0493 53.4392C45.9264 53.0696 46.7078 52.5303 47.3408 51.8576C47.9738 51.1849 48.4436 50.3944 48.7187 49.5395C48.9938 48.6845 49.0677 47.7849 48.9354 46.9013L48.4659 43.5811ZM1.63631 40.4887L1.6376 40.4795L1.85974 38.856C2.48929 39.4688 3.24686 39.9567 4.08642 40.2902C4.92599 40.6236 5.83001 40.7956 6.74359 40.7957H42.2559C43.1695 40.7956 44.0735 40.6236 44.9131 40.2902C45.7526 39.9567 46.5102 39.4688 47.1397 38.856L47.3619 40.4795L47.3632 40.4887C47.4651 41.1647 47.4092 41.8531 47.1992 42.5075C46.9893 43.1618 46.6302 43.7669 46.1461 44.2818C45.6621 44.7968 45.0643 45.2096 44.3932 45.4925C43.7221 45.7755 42.9933 45.9219 42.2559 45.9219H6.74369C6.00627 45.9219 5.27743 45.7755 4.60634 45.4925C3.93525 45.2096 3.33751 44.7968 2.85346 44.2818C2.3694 43.7669 2.01029 43.1618 1.80034 42.5075C1.59039 41.8531 1.53449 41.1647 1.63641 40.4887H1.63631ZM19.3727 8.46875H29.6269L24.4998 19.1577L19.3727 8.46875ZM23.0066 19.6651L13.0199 16.198L18.0135 9.25361L23.0066 19.6651ZM30.986 9.25361L35.9797 16.198L25.9925 19.6651L30.986 9.25361ZM44.2629 12.237L47.3633 33.8937C47.4652 34.5698 47.4093 35.2582 47.1993 35.9125C46.9894 36.5669 46.6303 37.1719 46.1462 37.6868C45.6622 38.2018 45.0644 38.6146 44.3933 38.8976C43.7222 39.1805 42.9934 39.3269 42.256 39.3269H25.2932V21.4764L37.4722 17.2488C37.584 17.21 37.685 17.1483 37.7675 17.0683C37.85 16.9884 37.9119 16.8922 37.9486 16.7869C37.9853 16.6817 37.9959 16.5702 37.9795 16.4606C37.9632 16.3511 37.9203 16.2464 37.8541 16.1544L32.3278 8.46875H39.1564C41.871 8.46875 43.9234 9.98514 44.263 12.2371L44.2629 12.237ZM1.637 33.8888L4.73588 12.2421C5.07614 9.98514 7.12857 8.46875 9.84327 8.46875H16.6719L11.1455 16.1544C11.0793 16.2465 11.0364 16.3512 11.0201 16.4607C11.0037 16.5703 11.0143 16.6818 11.051 16.787C11.0877 16.8923 11.1496 16.9884 11.2321 17.0684C11.3146 17.1484 11.4155 17.2101 11.5274 17.2489L23.7064 21.4764V39.3269H6.74369C6.0058 39.3269 5.27651 39.1803 4.60506 38.8971C3.93362 38.6138 3.33566 38.2005 2.85158 37.685C2.3675 37.1695 2.00857 36.5639 1.79904 35.909C1.58951 35.254 1.53425 34.5651 1.637 33.8888ZM46.1461 50.8913C45.6622 51.4063 45.0644 51.8192 44.3933 52.1021C43.7222 52.385 42.9933 52.5314 42.2559 52.5312H6.74369C6.00571 52.5313 5.27631 52.3846 4.6048 52.1013C3.93328 51.818 3.33528 51.4045 2.85121 50.8889C2.36713 50.3733 2.00825 49.7675 1.79881 49.1125C1.58938 48.4575 1.53426 47.7684 1.6372 47.092L1.86827 45.4594C2.49763 46.0697 3.25418 46.5555 4.09218 46.8875C4.93017 47.2194 5.83219 47.3906 6.74369 47.3906H42.2559C43.1674 47.3906 44.0694 47.2194 44.9075 46.8875C45.7455 46.5556 46.502 46.0697 47.1314 45.4594L47.3633 47.0981C47.4653 47.7741 47.4095 48.4626 47.1995 49.117C46.9895 49.7713 46.6303 50.3764 46.1461 50.8913Z" fill="#38106A"/>
<path d="M28.4667 24.6391H30.0534V26.8423H28.4667V24.6391Z" fill="#38106A"/>
<path d="M28.4667 31.2485H30.0534V33.4517H28.4667V31.2485Z" fill="#38106A"/>
</svg>
