<svg width="79" height="61" viewBox="0 0 79 61" fill="none" xmlns="http://www.w3.org/2000/svg">
<circle opacity="0.1" cx="48.6072" cy="30.1786" r="30.1786" fill="#047EEC"/>
<path d="M52 24.9688C52.5523 24.9688 53 24.528 53 23.9844C53 23.4407 52.5523 23 52 23C51.4477 23 51 23.4407 51 23.9844C51 24.528 51.4477 24.9688 52 24.9688Z" fill="#38106A"/>
<path d="M51 28.9062C51.5523 28.9062 52 28.4655 52 27.9219C52 27.3782 51.5523 26.9375 51 26.9375C50.4477 26.9375 50 27.3782 50 27.9219C50 28.4655 50.4477 28.9062 51 28.9062Z" fill="#38106A"/>
<path d="M52 42.6875C52.5523 42.6875 53 42.2468 53 41.7031C53 41.1595 52.5523 40.7188 52 40.7188C51.4477 40.7188 51 41.1595 51 41.7031C51 42.2468 51.4477 42.6875 52 42.6875Z" fill="#38106A"/>
<path d="M49 39.7344C49.5523 39.7344 50 39.2937 50 38.75C50 38.2063 49.5523 37.7656 49 37.7656C48.4477 37.7656 48 38.2063 48 38.75C48 39.2937 48.4477 39.7344 49 39.7344Z" fill="#38106A"/>
<path d="M55 39.7344C55.5523 39.7344 56 39.2937 56 38.75C56 38.2063 55.5523 37.7656 55 37.7656C54.4477 37.7656 54 38.2063 54 38.75C54 39.2937 54.4477 39.7344 55 39.7344Z" fill="#38106A"/>
<path d="M50 32.8438C50.5523 32.8438 51 32.403 51 31.8594C51 31.3157 50.5523 30.875 50 30.875C49.4477 30.875 49 31.3157 49 31.8594C49 32.403 49.4477 32.8438 50 32.8438Z" fill="#38106A"/>
<path d="M55 32.8438C55.5523 32.8438 56 32.403 56 31.8594C56 31.3157 55.5523 30.875 55 30.875C54.4477 30.875 54 31.3157 54 31.8594C54 32.403 54.4477 32.8438 55 32.8438Z" fill="#38106A"/>
<path d="M56 29.1877C56.5523 29.1877 57 28.7469 57 28.2033C57 27.6596 56.5523 27.2189 56 27.2189C55.4477 27.2189 55 27.6596 55 28.2033C55 28.7469 55.4477 29.1877 56 29.1877Z" fill="#38106A"/>
<path d="M57 24.9688C57.5523 24.9688 58 24.528 58 23.9844C58 23.4407 57.5523 23 57 23C56.4477 23 56 23.4407 56 23.9844C56 24.528 56.4477 24.9688 57 24.9688Z" fill="#38106A"/>
<path d="M72.2863 53.3282H67.6691L69.541 38.5867C70.0419 34.6053 69.1467 30.5748 67.0035 27.1624L65.2785 24.4227C65.212 23.0781 64.6798 21.7965 63.7704 20.7911L57.1055 11.4199L57.1038 11.4211C57.0118 11.2909 56.889 11.1845 56.7461 11.1112C56.6032 11.0378 56.4443 10.9997 56.2832 11C56.122 11.0003 55.9633 11.039 55.8206 11.1129C55.678 11.1868 55.5557 11.2936 55.4641 11.4241L46.4641 24.221C46.3884 24.3288 46.3352 24.4503 46.3077 24.5785L43.1757 39.2231C42.8852 40.5943 42.9558 42.0159 43.3808 43.3527C43.8058 44.6895 44.5711 45.8971 45.6038 46.8606C46.5781 48.8153 46.9501 51.0079 46.6738 53.1682L46.294 56.1593C46.2765 56.2978 46.289 56.4384 46.3308 56.5717C46.3727 56.7051 46.4428 56.8282 46.5366 56.9328C46.6305 57.0374 46.7459 57.1212 46.8751 57.1786C47.0043 57.236 47.1445 57.2657 47.2863 57.2657H66.2863C66.5301 57.2657 66.7654 57.1781 66.9481 57.0193C67.1309 56.8605 67.2484 56.6415 67.2786 56.4034L67.4191 55.297H72.2863V53.3282ZM45.1329 39.6288L48.2233 25.1784L56.1053 13.9712L60.2641 22.9777L58.3802 41.1976C58.2661 42.2873 57.8623 43.3281 57.2094 44.2151C56.5565 45.1022 55.6776 45.8041 54.6612 46.2503L53.88 46.5921C52.8167 47.0573 51.6435 47.2244 50.4899 47.0748C49.3362 46.9253 48.2469 46.4651 47.3422 45.7448C46.4374 45.0246 45.7523 44.0723 45.3625 42.9931C44.9726 41.9139 44.8932 40.7496 45.1329 39.6288ZM61.144 53.5887L60.5655 55.297H48.419L48.6584 53.4123C48.8658 51.791 48.764 50.1458 48.3582 48.5612C50.4098 49.3286 52.6862 49.2674 54.6923 48.3912L55.4736 48.0493C56.8116 47.4619 57.9688 46.5377 58.8284 45.3698C59.688 44.2019 60.2197 42.8316 60.37 41.397L62.2812 22.9123C62.2991 22.7389 62.2699 22.5639 62.1966 22.4052L61.6778 21.2816L62.1668 21.9692C62.1911 22.0034 62.2176 22.036 62.2461 22.0669C62.9161 22.7912 63.2871 23.7358 63.2863 24.7154V40.5933C63.2877 45.0104 62.5642 49.3987 61.144 53.5887ZM65.4036 55.297H62.6737L63.0413 54.2114C64.5296 49.8207 65.2877 45.2221 65.2863 40.5933V28.1722L65.3036 28.1996C67.2064 31.2293 68.0012 34.8077 67.5565 38.3426L65.4036 55.297Z" fill="#38106A"/>
<line x1="44" y1="19" x2="44" y2="25" stroke="#38106A" stroke-width="2" stroke-linecap="round"/>
<path d="M45 9H8.03139C7.62747 9 7.30127 9.32792 7.30127 9.73157V36.8756C7.06383 36.8274 6.81998 36.7995 6.57114 36.7995C4.5583 36.7995 2.92051 38.4406 2.92051 40.4574V40.4727C2.20642 41.011 1.72015 41.7894 1.54047 42.6521H0.730127C0.326204 42.6521 0 42.98 0 43.3836V46.3099C0 46.7136 0.326204 47.0415 0.730127 47.0415H1.46025V49.2362C1.46025 52.0599 3.75366 54.3571 6.57114 54.3571H41.023C41.427 54.3571 41.25 52.9894 41.25 52.5858L45 19.2419C45 19.2419 45 10.1272 45 9ZM43.8076 10.4631V17.7788H8.76152V10.4631H43.8076ZM4.04707 41.4794C4.30625 41.3329 4.45171 41.0439 4.41356 40.7478L4.40179 40.6628C4.39253 40.5956 4.38076 40.5285 4.38076 40.4574C4.38076 39.2475 5.36365 38.2627 6.57114 38.2627C7.34227 38.2627 8.04245 38.6656 8.44459 39.3418C8.55403 39.5261 8.73977 39.6533 8.95118 39.6887C9.16366 39.7251 9.38006 39.6644 9.54405 39.5247C9.8289 39.2825 10.3034 38.9942 10.9519 38.9942C11.733 38.9942 12.461 39.4265 12.8517 40.1223C13.0036 40.3945 13.313 40.5392 13.6168 40.4845C14.379 40.3484 15.1598 40.8728 15.3049 41.6497C15.3569 41.9277 15.564 42.1516 15.8378 42.2234C16.1131 42.2966 16.4008 42.202 16.5833 41.9848C17.0047 41.4794 17.6136 41.1889 18.2532 41.1889C19.2036 41.1889 20.0068 41.8026 20.3091 42.6521H3.06668C3.24386 42.1677 3.57826 41.7433 4.04707 41.4794ZM13.8724 34.6048C13.8724 27.7471 19.4403 22.1682 26.2846 22.1682C33.1288 22.1682 38.6967 27.7471 38.6967 34.6048C38.6967 41.4626 33.1288 47.0415 26.2846 47.0415C25.2543 47.0415 24.2468 46.9025 23.2657 46.656C23.3231 46.5514 23.3641 46.4371 23.3641 46.3099V45.1818C24.3102 45.4437 25.2878 45.5783 26.2846 45.5783C32.3234 45.5783 37.2365 40.6556 37.2365 34.6048C37.2365 28.5541 32.3234 23.6313 26.2846 23.6313C20.2457 23.6313 15.3327 28.5541 15.3327 34.6048C15.3327 36.5334 15.8328 38.3938 16.7769 40.0462C16.6132 40.1202 16.4542 40.2041 16.3031 40.3023C15.9327 39.7433 15.3765 39.33 14.7327 39.1296C14.1697 37.6883 13.8724 36.1705 13.8724 34.6048ZM18.2956 39.7301C17.7145 38.8239 17.2917 37.8369 17.0471 36.7995H17.523C18.1883 36.7995 18.8147 36.5398 19.2856 36.068L19.7134 35.64C20.1042 35.2485 20.7829 35.2485 21.1737 35.64L21.6015 36.068C22.5441 37.011 24.184 37.0117 25.1266 36.068L25.5544 35.64C25.9452 35.2485 26.624 35.2485 27.0147 35.64L27.4425 36.068C28.3851 37.011 30.025 37.0117 30.9676 36.068L31.3955 35.64C31.7862 35.2485 32.465 35.2485 32.8557 35.64L33.2835 36.068C33.7552 36.5398 34.3808 36.7995 35.0461 36.7995H35.5113C34.5181 40.9871 30.763 44.1152 26.2846 44.1152C25.2828 44.1152 24.3045 43.9512 23.3641 43.6462V43.3836C23.3641 42.98 23.0379 42.6521 22.6339 42.6521H21.83C21.4935 40.9978 20.0389 39.7508 18.2956 39.7301ZM16.7929 34.6048C16.7929 29.361 21.051 25.0945 26.2846 25.0945C31.5181 25.0945 35.7762 29.361 35.7762 34.6048C35.7762 34.852 35.758 35.0942 35.7391 35.3364H35.0461C34.7701 35.3364 34.5117 35.2289 34.316 35.0335L33.8881 34.6048C32.9455 33.6618 31.3056 33.6611 30.363 34.6048L29.9352 35.0328C29.5445 35.4243 28.8657 35.4243 28.4749 35.0328L28.0471 34.6048C27.1045 33.6618 25.4646 33.6611 24.522 34.6048L24.0942 35.0328C23.7034 35.4243 23.0247 35.4243 22.6339 35.0328L22.2061 34.6048C21.2635 33.6618 19.6236 33.6611 18.681 34.6048L18.2532 35.0328C18.0574 35.2289 17.799 35.3364 17.523 35.3364H16.8207C16.8025 35.0942 16.7929 34.8499 16.7929 34.6048ZM1.46025 44.1152H21.9038V45.5783H1.46025V44.1152ZM16.0628 52.894H6.57114C4.5583 52.894 2.92051 51.253 2.92051 49.2362V47.0415H20.4436V49.2362C20.4436 51.253 18.8058 52.894 16.7929 52.894H16.0628ZM20.3626 52.894C21.3124 51.9635 21.9038 50.6686 21.9038 49.2362V47.7848C23.3116 48.2553 24.779 48.5046 26.2846 48.5046C33.9341 48.5046 40.157 42.2695 40.157 34.6048C40.157 26.9402 33.9341 20.7051 26.2846 20.7051C18.635 20.7051 12.4122 26.9402 12.4122 34.6048C12.4122 35.7951 12.5765 36.9581 12.8692 38.0901C12.3013 37.7329 11.6403 37.5311 10.9519 37.5311C10.3555 37.5311 9.76545 37.684 9.23746 37.9715C9.09236 37.8137 8.92944 37.6776 8.76152 37.5486V19.2419H45L41.25 52.5858L20.3626 52.894Z" fill="#38106A"/>
<path d="M12.4121 16.3157C13.6196 16.3157 14.6025 15.3308 14.6025 14.121C14.6025 12.9111 13.6196 11.9263 12.4121 11.9263C11.2046 11.9263 10.2217 12.9111 10.2217 14.121C10.2217 15.3308 11.2046 16.3157 12.4121 16.3157ZM12.4121 13.3894C12.815 13.3894 13.1422 13.718 13.1422 14.121C13.1422 14.5239 12.815 14.8525 12.4121 14.8525C12.0093 14.8525 11.682 14.5239 11.682 14.121C11.682 13.718 12.0093 13.3894 12.4121 13.3894Z" fill="#38106A"/>
<path d="M18.2532 16.3157C19.4607 16.3157 20.4436 15.3308 20.4436 14.121C20.4436 12.9111 19.4607 11.9263 18.2532 11.9263C17.0457 11.9263 16.0628 12.9111 16.0628 14.121C16.0628 15.3308 17.0457 16.3157 18.2532 16.3157ZM18.2532 13.3894C18.656 13.3894 18.9833 13.718 18.9833 14.121C18.9833 14.5239 18.656 14.8525 18.2532 14.8525C17.8503 14.8525 17.5231 14.5239 17.5231 14.121C17.5231 13.718 17.8503 13.3894 18.2532 13.3894Z" fill="#38106A"/>
<path d="M24.0941 16.3157C25.3016 16.3157 26.2845 15.3308 26.2845 14.121C26.2845 12.9111 25.3016 11.9263 24.0941 11.9263C22.8866 11.9263 21.9037 12.9111 21.9037 14.121C21.9037 15.3308 22.8866 16.3157 24.0941 16.3157ZM24.0941 13.3894C24.497 13.3894 24.8243 13.718 24.8243 14.121C24.8243 14.5239 24.497 14.8525 24.0941 14.8525C23.6913 14.8525 23.364 14.5239 23.364 14.121C23.364 13.718 23.6913 13.3894 24.0941 13.3894Z" fill="#38106A"/>
<path d="M40.8871 14.8526H42.3473V16.3157H40.8871V14.8526Z" fill="#38106A"/>
<path d="M40.8871 11.9263H42.3473V13.3894H40.8871V11.9263Z" fill="#38106A"/>
<path d="M37.9666 14.8526H39.4269V16.3157H37.9666V14.8526Z" fill="#38106A"/>
<path d="M37.9666 11.9263H39.4269V13.3894H37.9666V11.9263Z" fill="#38106A"/>
<path d="M35.0461 14.8526H36.5063V16.3157H35.0461V14.8526Z" fill="#38106A"/>
<path d="M35.0461 11.9263H36.5063V13.3894H35.0461V11.9263Z" fill="#38106A"/>
<path d="M32.1256 14.8526H33.5859V16.3157H32.1256V14.8526Z" fill="#38106A"/>
<path d="M32.1256 11.9263H33.5859V13.3894H32.1256V11.9263Z" fill="#38106A"/>
</svg>
