<svg width="78" height="61" viewBox="0 0 78 61" fill="none" xmlns="http://www.w3.org/2000/svg">
<circle opacity="0.1" cx="47.6072" cy="30.1786" r="30.1786" fill="#FFA019"/>
<path d="M28.0063 51.4495V51.2005C28.0046 50.8147 28.15 50.4424 28.4137 50.1576C28.6775 49.8727 29.0402 49.6961 29.4298 49.6629L29.9011 49.6206L29.9037 49.6204L33.3612 49.3104L33.1708 47.2438L29.712 47.554C29.4955 47.5732 29.2773 47.5477 29.0713 47.4792C28.8653 47.4107 28.6761 47.3006 28.5156 47.1559C28.3551 47.0112 28.227 46.8352 28.1393 46.639C28.0516 46.4428 28.0063 46.2307 28.0063 46.0163V45.8096C28.0062 45.4482 28.1346 45.0982 28.3693 44.8207C28.604 44.5432 28.9299 44.3557 29.2904 44.2909L30.2267 44.1236C30.2315 44.1228 30.2361 44.1214 30.2409 44.1204L31.3503 43.9215L30.9739 41.8798L29.8617 42.0792C29.8579 42.0799 29.8541 42.08 29.8503 42.0807L29.8407 42.0824C29.6158 42.1212 29.385 42.1111 29.1645 42.0526C28.944 41.9941 28.7391 41.8887 28.5643 41.7438C28.3895 41.5989 28.249 41.4181 28.1526 41.2139C28.0562 41.0097 28.0062 40.7872 28.0063 40.562V40.439C28.0069 40.1022 28.119 39.7747 28.3255 39.5064C28.5319 39.2381 28.8215 39.0435 29.1503 38.9523C29.1533 38.9515 29.1566 38.9502 29.1596 38.9494L31.4389 38.3364L30.8854 36.3345L29.9834 36.577C29.5947 36.6817 29.18 36.6344 28.8257 36.445C28.4714 36.2556 28.2048 35.9388 28.0815 35.5604C27.9581 35.182 27.9875 34.7713 28.1634 34.4138C28.3394 34.0562 28.6484 33.7794 29.0261 33.6409L29.0362 33.6373L32.5735 32.368L31.9466 30.6674L32.4157 30.5771L32.0125 28.5405L29.5447 29.0158L28.7884 27.8969L31.8623 27.56C32.6864 27.4698 33.4955 27.2756 34.2695 26.9823L33.5149 25.0452C32.9088 25.2749 32.2753 25.4269 31.6301 25.4975L27.3407 25.9676L26.1898 24.8323C26.1195 24.763 26.0669 24.6782 26.0364 24.585C26.0059 24.4917 25.9982 24.3926 26.0141 24.2959C26.03 24.1992 26.069 24.1075 26.1279 24.0286C26.1867 23.9496 26.2637 23.8855 26.3526 23.8417L28.2549 22.9034L34.3184 22.9011L34.3175 20.8259L28.0059 20.8284C27.8427 20.8285 27.6818 20.8661 27.5358 20.938L25.4116 21.9857L23.3281 23.0131C23.182 23.0851 23.055 23.1897 22.957 23.3186L21.0208 25.8651L3.87262 31.4777C2.93568 31.7832 2.12037 32.3726 1.54281 33.1618C0.965256 33.9511 0.6549 34.8999 0.655947 35.8733C0.655749 36.3566 0.753655 36.835 0.943891 37.2803C1.13413 37.7257 1.41284 38.129 1.76361 38.4664C1.75402 38.4757 1.74403 38.4843 1.73453 38.4937C1.39017 38.8329 1.11752 39.2362 0.932379 39.6802C0.74724 40.1241 0.653299 40.5999 0.656004 41.08C0.658709 41.56 0.758006 42.0348 0.948136 42.4767C1.13827 42.9186 1.41545 43.3188 1.76361 43.6543C1.75402 43.6635 1.74403 43.6722 1.73453 43.6816C1.39017 44.0208 1.11752 44.4241 0.932379 44.8681C0.74724 45.312 0.653299 45.7878 0.656004 46.2679C0.658709 46.7479 0.758006 47.2226 0.948136 47.6645C1.13827 48.1064 1.41545 48.5067 1.76361 48.8422C1.75402 48.8514 1.74403 48.8601 1.73453 48.8695C1.21956 49.3773 0.868842 50.0243 0.726732 50.7287C0.584622 51.4332 0.657506 52.1634 0.936164 52.8269C1.21482 53.4905 1.68674 54.0576 2.29222 54.4566C2.8977 54.8556 3.60955 55.0686 4.33773 55.0685H34.3179V52.9933H29.5716C29.1566 52.9929 28.7587 52.8301 28.4653 52.5406C28.1719 52.2512 28.0068 51.8588 28.0063 51.4495ZM24.0678 25.3164C24.2039 25.6859 24.4204 26.0216 24.7021 26.2998L25.0825 26.6749L22.1572 27.829L24.0678 25.3164ZM26.5526 28.3299L28.183 30.7422C28.2981 30.9126 28.4618 31.0455 28.6535 31.1243C28.8451 31.2031 29.0561 31.2242 29.2598 31.1849L30.2443 30.9953L28.3176 31.6864C28.3146 31.6875 28.3117 31.6889 28.3086 31.69L26.7692 32.2418H8.21808L19.6733 28.4925C19.7258 28.6168 19.8025 28.7298 19.8989 28.8252L20.9509 29.8628C21.0964 30.0063 21.2815 30.1046 21.4832 30.1454C21.6849 30.1863 21.8942 30.1678 22.0854 30.0924L26.5526 28.3299ZM2.75982 35.8733C2.7601 35.4606 2.92644 35.0649 3.22229 34.7731C3.51814 34.4813 3.91933 34.3172 4.33773 34.3169H25.9891C25.8668 34.8603 25.874 35.4242 26.0102 35.9644C26.1464 36.5045 26.4078 37.0061 26.774 37.4297H4.33773C3.91938 37.4292 3.51831 37.2651 3.2225 36.9733C2.92668 36.6815 2.76029 36.2859 2.75982 35.8733ZM2.75982 41.0612C2.7601 40.6485 2.92644 40.2528 3.22229 39.961C3.51814 39.6692 3.91933 39.5051 4.33773 39.5048H26.029C25.9454 39.8094 25.9029 40.1235 25.9024 40.439V40.562C25.9017 41.2963 25.9599 42.0134 26.3831 42.6175H4.33773C3.91938 42.6171 3.51831 42.453 3.2225 42.1612C2.92668 41.8694 2.76029 41.4738 2.75982 41.0612ZM2.75982 46.2491C2.7601 45.8364 2.92644 45.4407 3.22229 45.1489C3.51814 44.857 3.91933 44.693 4.33773 44.6927H26.0844C25.9646 45.0533 25.9032 45.4302 25.9024 45.8096V46.0163C25.903 46.6436 26.0686 47.2601 26.3831 47.8054H4.33773C3.91938 47.805 3.51831 47.6409 3.2225 47.3491C2.92668 47.0573 2.76029 46.6617 2.75982 46.2491ZM2.75982 51.437C2.7601 51.0243 2.92644 50.6286 3.22229 50.3367C3.51814 50.0449 3.91933 49.8809 4.33773 49.8806H26.1511C25.9861 50.3016 25.9017 50.7491 25.9024 51.2005V51.4495C25.902 51.9835 26.022 52.5108 26.2539 52.9933H4.33773C3.91938 52.9929 3.51831 52.8287 3.2225 52.537C2.92668 52.2452 2.76029 51.8496 2.75982 51.437Z" fill="#38106A"/>
<path d="M41.6816 26.0138C42.2625 26.0138 42.7335 25.5492 42.7335 24.9762C42.7335 24.4032 42.2625 23.9386 41.6816 23.9386C41.1006 23.9386 40.6296 24.4032 40.6296 24.9762C40.6296 25.5492 41.1006 26.0138 41.6816 26.0138Z" fill="#38106A"/>
<path d="M40.6296 30.1641C41.2106 30.1641 41.6816 29.6995 41.6816 29.1265C41.6816 28.5535 41.2106 28.0889 40.6296 28.0889C40.0487 28.0889 39.5777 28.5535 39.5777 29.1265C39.5777 29.6995 40.0487 30.1641 40.6296 30.1641Z" fill="#38106A"/>
<path d="M41.6816 44.6902C42.2625 44.6902 42.7335 44.2256 42.7335 43.6526C42.7335 43.0795 42.2625 42.615 41.6816 42.615C41.1006 42.615 40.6296 43.0795 40.6296 43.6526C40.6296 44.2256 41.1006 44.6902 41.6816 44.6902Z" fill="#38106A"/>
<path d="M38.5258 41.5774C39.1067 41.5774 39.5777 41.1129 39.5777 40.5399C39.5777 39.9668 39.1067 39.5023 38.5258 39.5023C37.9448 39.5023 37.4738 39.9668 37.4738 40.5399C37.4738 41.1129 37.9448 41.5774 38.5258 41.5774Z" fill="#38106A"/>
<path d="M44.8373 41.5774C45.4183 41.5774 45.8893 41.1129 45.8893 40.5399C45.8893 39.9668 45.4183 39.5023 44.8373 39.5023C44.2564 39.5023 43.7854 39.9668 43.7854 40.5399C43.7854 41.1129 44.2564 41.5774 44.8373 41.5774Z" fill="#38106A"/>
<path d="M39.5777 34.3144C40.1587 34.3144 40.6296 33.8499 40.6296 33.2768C40.6296 32.7038 40.1587 32.2392 39.5777 32.2392C38.9967 32.2392 38.5258 32.7038 38.5258 33.2768C38.5258 33.8499 38.9967 34.3144 39.5777 34.3144Z" fill="#38106A"/>
<path d="M44.8373 34.3144C45.4183 34.3144 45.8893 33.8499 45.8893 33.2768C45.8893 32.7038 45.4183 32.2392 44.8373 32.2392C44.2564 32.2392 43.7854 32.7038 43.7854 33.2768C43.7854 33.8499 44.2564 34.3144 44.8373 34.3144Z" fill="#38106A"/>
<path d="M45.8893 30.1641C46.4703 30.1641 46.9413 29.6995 46.9413 29.1265C46.9413 28.5535 46.4703 28.0889 45.8893 28.0889C45.3084 28.0889 44.8374 28.5535 44.8374 29.1265C44.8374 29.6995 45.3084 30.1641 45.8893 30.1641Z" fill="#38106A"/>
<path d="M46.9412 26.0138C47.5222 26.0138 47.9932 25.5492 47.9932 24.9762C47.9932 24.4032 47.5222 23.9386 46.9412 23.9386C46.3603 23.9386 45.8893 24.4032 45.8893 24.9762C45.8893 25.5492 46.3603 26.0138 46.9412 26.0138Z" fill="#38106A"/>
<path d="M63.7721 54.0286H58.9151L60.8842 38.4904C61.4111 34.2938 60.4694 30.0454 58.2149 26.4486L56.4003 23.5608C56.3304 22.1436 55.7705 20.7927 54.8139 19.733L47.8028 9.85534L47.8011 9.85655C47.7042 9.71928 47.5751 9.60719 47.4248 9.5299C47.2744 9.4526 47.1073 9.41239 46.9378 9.41271C46.7682 9.41302 46.6013 9.45386 46.4512 9.53172C46.3012 9.60958 46.1725 9.72214 46.0762 9.85978L36.6087 23.3483C36.5291 23.4619 36.4731 23.5899 36.4442 23.7251L33.1495 39.1612C32.844 40.6065 32.9183 42.1049 33.3653 43.514C33.8124 44.923 34.6174 46.1958 35.7038 47.2115C36.7287 49.2718 37.12 51.5829 36.8293 53.8599L36.4299 57.0127C36.4114 57.1586 36.4245 57.3068 36.4685 57.4474C36.5125 57.588 36.5863 57.7177 36.685 57.828C36.7838 57.9383 36.9051 58.0266 37.0411 58.0871C37.177 58.1476 37.3245 58.1789 37.4736 58.1789H57.4605C57.7169 58.1789 57.9644 58.0866 58.1567 57.9192C58.3489 57.7518 58.4725 57.521 58.5043 57.27L58.6521 56.1038H63.7721V54.0286ZM35.2083 39.5888L38.4593 24.3574L46.7506 12.5445L51.1255 22.0378L49.1438 41.2424C49.0237 42.391 48.5989 43.488 47.9121 44.423C47.2253 45.358 46.3007 46.0979 45.2316 46.5681L44.4098 46.9285C43.2912 47.4188 42.0571 47.5949 40.8436 47.4373C39.63 47.2797 38.4842 46.7945 37.5324 46.0354C36.5807 45.2762 35.86 44.2725 35.4499 43.1349C35.0398 41.9974 34.9562 40.7702 35.2083 39.5888ZM52.051 54.3032L51.4426 56.1038H38.6652L38.917 54.1173C39.1352 52.4083 39.0281 50.6742 38.6012 49.004C40.7594 49.8128 43.154 49.7484 45.2643 48.8248L46.0861 48.4644C47.4937 47.8453 48.7109 46.8711 49.6152 45.6401C50.5195 44.4091 51.0788 42.9647 51.2368 41.4526L53.2473 21.9689C53.2662 21.7861 53.2355 21.6016 53.1584 21.4344L52.6126 20.25L53.127 20.9747C53.1525 21.0108 53.1804 21.0452 53.2104 21.0777C53.9152 21.8412 54.3055 22.8368 54.3046 23.8693V40.6055C54.3061 45.2613 53.5451 49.8868 52.051 54.3032ZM56.5319 56.1038H53.6602L54.0469 54.9595C55.6125 50.3315 56.41 45.4844 56.4085 40.6055V27.513L56.4267 27.5419C58.4283 30.7353 59.2644 34.5071 58.7966 38.233L56.5319 56.1038Z" fill="#38106A"/>
</svg>
